<?xml version="1.0" standalone="no"?>
<!DOCTYPE svg PUBLIC "-//W3C//DTD SVG 1.1//EN" "http://www.w3.org/Graphics/SVG/1.1/DTD/svg11.dtd" >
<svg xmlns="http://www.w3.org/2000/svg">
<metadata>Generated by IcoMoon</metadata>
<defs>
<font id="icomoon" horiz-adv-x="1024">
<font-face units-per-em="1024" ascent="960" descent="-64" />
<missing-glyph horiz-adv-x="1024" />
<glyph unicode="&#x20;" horiz-adv-x="512" d="" />
<glyph unicode="&#xe900;" glyph-name="Add-Assets" d="M778.24 622.080c-15.36 0-25.6 0-40.96-5.12-35.84 107.52-138.24 189.44-261.12 189.44-148.48 0-271.36-117.76-271.36-266.24 0-15.36 0-25.6 0-40.96-5.12 0-15.36 0-20.48 0-102.4 0-184.32-81.92-184.32-179.2s81.92-179.2 184.32-179.2h225.28v204.8h-128l230.4 256 230.4-256h-128v-204.8h163.84c133.12 0 245.76 107.52 245.76 240.64s-107.52 240.64-245.76 240.64z" />
<glyph unicode="&#xe901;" glyph-name="My-Library" d="M942.080 816.64c-5.12 20.48-35.84 40.96-61.44 40.96h-737.28c-30.72 0-56.32-20.48-61.44-40.96l-10.24-61.44h880.64l-10.24 61.44zM993.28 704h-962.56c-20.48 0-30.72-15.36-30.72-30.72l46.080-599.040c5.12-20.48 20.48-35.84 40.96-35.84h849.92c20.48 0 35.84 15.36 40.96 35.84l46.080 599.040c0 15.36-10.24 30.72-30.72 30.72zM409.6 243.2v256l225.28-128-225.28-128z" />
<glyph unicode="&#xe902;" glyph-name="My-Organization" d="M992 704v-32c0-8.8-7.2-16-16-16h-48v-24c0-13.2-10.8-24-24-24h-784c-13.2 0-24 10.8-24 24v24h-48c-8.8 0-16 7.2-16 16v32c0 6.4 4 12.4 9.8 14.8l464 176c4 1.6 8.4 1.6 12.2 0l464-176c6-2.4 10-8.4 10-14.8zM944 96h-864c-26.6 0-48-21.4-48-48v-32c0-8.8 7.2-16 16-16h928c8.8 0 16 7.2 16 16v32c0 26.6-21.4 48-48 48zM192 576v-384h-72c-13.2 0-24-10.8-24-24v-40h832v40c0 13.2-10.8 24-24 24h-72v384h-128v-384h-128v384h-128v-384h-128v384h-128z" />
<glyph unicode="&#xe903;" glyph-name="User" d="M512 960c176.8 0 320-143.2 320-320s-143.2-320-320-320-320 143.2-320 320 143.2 320 320 320zM878.6 292.4l-142.6 35.6c-149.8-107.8-331.4-83.8-447.8 0l-142.6-35.6c-85.6-21.4-145.6-98.2-145.6-186.4v-74c0-53 43-96 96-96h832c53 0 96 43 96 96v74c0 88.2-60 165-145.4 186.4v0z" />
<glyph unicode="&#xe904;" glyph-name="if_Untitled-2-21_536285" d="M1024 277.291c0-11.691-9.515-21.291-21.461-21.291h-768c-11.605 0-21.077 9.6-21.077 21.291v85.376c0 11.691 9.472 21.333 21.077 21.333h768c11.947 0 21.461-9.643 21.461-21.333v-85.376zM128 362.667c0 11.691-9.515 21.333-21.461 21.333h-85.077c-11.947 0-21.461-9.643-21.461-21.333v-85.376c0-11.691 9.515-21.291 21.461-21.291h85.077c11.947 0 21.461 9.6 21.461 21.291v85.376zM1024 106.667c0 11.691-9.515 21.333-21.461 21.333h-768c-11.605 0-21.077-9.643-21.077-21.333v-85.376c0-11.691 9.472-21.291 21.077-21.291h768c11.947 0 21.461 9.6 21.461 21.291v85.376zM128 106.667c0 11.691-9.515 21.333-21.461 21.333h-85.077c-11.947 0-21.461-9.643-21.461-21.333v-85.376c0-11.691 9.515-21.291 21.461-21.291h85.077c11.947 0 21.461 9.6 21.461 21.291v85.376zM1024 618.667c0 11.691-9.515 21.333-21.461 21.333h-768c-11.605 0-21.077-9.643-21.077-21.333v-85.376c0-11.691 9.472-21.291 21.077-21.291h768c11.947 0 21.461 9.6 21.461 21.291v85.376zM128 618.667c0 11.691-9.515 21.333-21.461 21.333h-85.077c-11.947 0-21.461-9.643-21.461-21.333v-85.376c0-11.691 9.515-21.291 21.461-21.291h85.077c11.947 0 21.461 9.6 21.461 21.291v85.376zM1024 874.667c0 11.691-9.515 21.333-21.461 21.333h-768c-11.605 0-21.077-9.643-21.077-21.333v-85.376c0-11.691 9.472-21.291 21.077-21.291h768c11.947 0 21.461 9.6 21.461 21.291v85.376zM128 874.667c0 11.691-9.515 21.333-21.461 21.333h-85.077c-11.947 0-21.461-9.643-21.461-21.333v-85.376c0-11.691 9.515-21.291 21.461-21.291h85.077c11.947 0 21.461 9.6 21.461 21.291v85.376z" />
<glyph unicode="&#xe905;" glyph-name="four-grid-layout-design-interface-symbol" d="M0 960h468.114v-468.114h-468.114v468.114zM555.886 960h468.114v-468.114h-468.114v468.114zM0 404.114h468.114v-468.114h-468.114v468.114zM555.886 404.114h468.114v-468.114h-468.114v468.114z" />
<glyph unicode="&#xe906;" glyph-name="Vector-Smart-Object3" d="M942.080 816.64c-5.12 20.48-35.84 40.96-61.44 40.96h-737.28c-25.6 0-56.32-20.48-61.44-40.96l-10.24-61.44h880.64l-10.24 61.44zM993.28 704h-962.56c-20.48 0-30.72-15.36-30.72-30.72l46.080-599.040c5.12-20.48 20.48-35.84 40.96-35.84h849.92c20.48 0 35.84 15.36 40.96 35.84l46.080 599.040c0 15.36-10.24 30.72-30.72 30.72zM711.68 330.24h-143.36v-148.48c0-25.6-20.48-40.96-46.080-40.96s-40.96 20.48-40.96 46.080v143.36h-148.48c-25.6 0-40.96 20.48-40.96 46.080s20.48 40.96 46.080 40.96h143.36v148.48c0 20.48 20.48 35.84 46.080 35.84s40.96-20.48 40.96-46.080v-143.36h148.48c25.6 0 40.96-20.48 40.96-46.080-5.12-20.48-25.6-40.96-46.080-35.84z" />
<glyph unicode="&#xe907;" glyph-name="play-button" d="M955.316 703.958c-141.36 244.843-454.453 328.737-699.276 187.351-244.843-141.34-328.74-454.421-187.355-699.254 141.34-244.843 454.424-328.75 699.25-187.378 244.846 141.389 328.783 454.453 187.381 699.28zM716.756 93.372c-195.845-113.111-446.335-45.992-559.413 149.892-113.105 195.845-45.962 446.331 149.889 559.387 195.858 113.105 446.335 45.992 559.42-149.886 113.088-195.874 45.966-446.309-149.895-559.394zM696.283 468.808l-268.054 156.335c-24.427 14.261-44.13 2.859-43.993-25.396l1.373-310.309c0.124-28.248 20.068-39.748 44.567-25.598l266.003 153.577c24.473 14.124 24.525 37.13 0.104 51.391z" />
<glyph unicode="&#xe908;" glyph-name="Annotate-Video" d="M0 455.8v408.2c0 53 43 96 96 96h408.2c25.4 0 49.8-10.2 67.8-28.2l423.8-423.8c37.4-37.4 37.4-98.2 0-135.8l-408.2-408c-37.4-37.4-98.2-37.4-135.8 0l-423.6 423.6c-18 18-28.2 42.6-28.2 68zM224 832c-53 0-96-43-96-96s43-96 96-96 96 43 96 96-43 96-96 96z" />
<glyph unicode="&#xe909;" glyph-name="Close" d="M732.16 202.24c-25.6-25.6-61.44-25.6-87.040 0l-138.24 153.6-138.24-153.6c-25.6-25.6-61.44-25.6-87.040 0s-25.6 61.44 0 87.040l148.48 158.72-138.24 163.84c-25.6 25.6-25.6 61.44 0 87.040s61.44 25.6 87.040 0l138.24-153.6 138.24 153.6c25.6 25.6 61.44 25.6 87.040 0s25.6-61.44 0-87.040l-148.48-163.84 143.36-158.72c20.48-25.6 20.48-66.56-5.12-87.040z" />
<glyph unicode="&#xe90a;" glyph-name="chevron-with-circle-left" d="M578.56 320c10.24-10.24 10.24-25.6 0-35.84s-25.6-10.24-35.84 0l-143.36 148.48c-10.24 10.24-10.24 25.6 0 35.84l143.36 148.48c10.24 10.24 25.6 10.24 35.84 0s10.24-25.6 0-35.84l-117.76-133.12 117.76-128zM1003.52 448c0-271.36-220.16-491.52-491.52-491.52s-491.52 220.16-491.52 491.52c0 271.36 220.16 491.52 491.52 491.52s491.52-220.16 491.52-491.52zM942.080 448c0 235.52-189.44 430.080-430.080 430.080-235.52 0-430.080-189.44-430.080-430.080s189.44-430.080 430.080-430.080c235.52 0 430.080 194.56 430.080 430.080z" />
<glyph unicode="&#xe90b;" glyph-name="chevron-with-circle-right" d="M563.2 448l-117.76 128c-10.24 10.24-10.24 25.6 0 35.84s25.6 10.24 35.84 0l143.36-148.48c10.24-10.24 10.24-25.6 0-35.84l-143.36-148.48c-10.24-10.24-25.6-10.24-35.84 0s-10.24 25.6 0 35.84l117.76 133.12zM512 939.52c271.36 0 491.52-220.16 491.52-491.52s-220.16-491.52-491.52-491.52-491.52 220.16-491.52 491.52c0 271.36 220.16 491.52 491.52 491.52zM512 17.92c235.52 0 430.080 189.44 430.080 430.080s-194.56 430.080-430.080 430.080c-235.52 0-430.080-189.44-430.080-430.080 0-235.52 194.56-430.080 430.080-430.080z" />
<glyph unicode="&#xe90c;" glyph-name="Annotate" d="M931.84 867.84c-56.32 56.32-107.52 40.96-107.52 40.96l-440.32-445.44-76.8-220.16 220.16 76.8 445.44 440.32c0 0 15.36 51.2-40.96 107.52zM542.72 366.080l-25.6-25.6-76.8-25.6c-5.12 10.24-10.24 25.6-25.6 35.84-15.36 15.36-25.6 20.48-35.84 25.6l25.6 76.8 25.6 25.6c0 0 40.96 5.12 76.8-35.84 40.96-35.84 35.84-76.8 35.84-76.8zM819.2 89.6h-665.6v665.6h256l102.4 102.4h-358.4c-56.32 0-102.4-46.080-102.4-102.4v-665.6c0-56.32 46.080-102.4 102.4-102.4h665.6c56.32 0 102.4 46.080 102.4 102.4v358.4l-102.4-102.4v-256z" />
<glyph unicode="&#xe90d;" glyph-name="check-mark" d="M387.277-64c-31.832 0-61.937 14.892-81.291 40.433l-261.383 345.19c-33.997 44.895-25.147 108.822 19.749 142.833 44.968 34.026 108.851 25.117 142.863-19.749l171.915-227.006 432.377 694.243c29.769 47.762 92.628 62.376 140.493 32.651 47.806-29.755 62.405-92.657 32.622-140.464l-510.771-820.078c-17.744-28.511-48.377-46.446-81.92-47.967-1.565-0.059-3.101-0.088-4.652-0.088z" />
<glyph unicode="&#xe90e;" glyph-name="down-chevron" d="M970.771 729.867l-458.773-457.277-458.77 457.277-53.229-53.402 511.999-510.332 512.001 510.332z" />
<glyph unicode="&#xe90f;" glyph-name="magnifying-glass" d="M683.841 842.832c-156.213 156.213-410.46 156.213-566.673 0-156.179-156.246-156.179-410.46 0-566.707 139.111-139.078 355.77-153.978 511.881-45.377 3.285-15.543 10.802-30.376 22.892-42.465l227.495-227.495c33.152-33.085 86.725-33.085 119.708 0 33.119 33.119 33.119 86.691 0 119.708l-227.495 227.563c-12.022 11.988-26.888 19.539-42.431 22.824 108.668 156.145 93.768 372.77-45.377 511.949zM612.016 347.95c-116.626-116.626-306.431-116.626-423.024 0-116.558 116.626-116.558 306.397 0 423.024 116.592 116.592 306.397 116.592 423.024 0 116.626-116.626 116.626-306.397 0-423.024z" />
<glyph unicode="&#xe910;" glyph-name="Annotate-Transcript" d="M901.12 837.12c-76.8 71.68-133.12 61.44-133.12 61.44l-307.2-312.32-348.16-343.040-51.2-245.76 245.76 51.2 655.36 655.36c0 0 10.24 56.32-61.44 133.12zM291.84 79.36l-81.92-20.48c-10.24 15.36-15.36 30.72-35.84 46.080-15.36 15.36-30.72 25.6-46.080 35.84l15.36 81.92 25.6 25.6c0 0 46.080 0 97.28-51.2s51.2-97.28 51.2-97.28l-25.6-20.48z" />
<glyph unicode="&#xe911;" glyph-name="Generate-Transcript" d="M281.6 232.96c-112.64 122.88-112.64 317.44 5.12 440.32 51.2 51.2 112.64 76.8 174.080 87.040v107.52c-92.16-10.24-179.2-51.2-245.76-122.88-163.84-158.72-163.84-419.84-5.12-588.8l-87.040-92.16 281.6-15.36v296.96l-122.88-112.64zM624.64 842.24v-296.96l117.76 117.76c117.76-122.88 112.64-317.44-5.12-440.32-51.2-51.2-112.64-76.8-174.080-87.040l5.12-107.52c92.16 10.24 179.2 51.2 245.76 122.88 158.72 158.72 158.72 419.84 0 588.8l87.040 92.16-276.48 10.24z" />
<glyph unicode="&#xe912;" glyph-name="icon-docfile" horiz-adv-x="768" d="M576 464v-56c0-13.2-10.8-24-24-24h-336c-13.2 0-24 10.8-24 24v56c0 13.2 10.8 24 24 24h336c13.2 0 24-10.8 24-24zM552 320h-336c-13.2 0-24-10.8-24-24v-56c0-13.2 10.8-24 24-24h336c13.2 0 24 10.8 24 24v56c0 13.2-10.8 24-24 24zM768 696.2v-664.2c0-53-43-96-96-96h-576c-53 0-96 43-96 96v832c0 53 43 96 96 96h408.2c25.4 0 49.8-10.2 67.8-28.2l167.8-167.8c18-17.8 28.2-42.4 28.2-67.8zM512 856.2v-152.2h152.2c0 0-152.2 152.2-152.2 152.2zM672 32v576h-208c-26.6 0-48 21.4-48 48v208h-320v-832h576z" />
<glyph unicode="&#xe913;" glyph-name="icon-pdf" horiz-adv-x="768" d="M739.8 764.2l-167.8 167.8c-18 18-42.4 28.2-67.8 28.2h-408.2c-53-0.2-96-43.2-96-96.2v-832c0-53 43-96 96-96h576c53 0 96 43 96 96v664.2c0 25.4-10.2 50-28.2 68zM664.2 704h-152.2v152.2l152.2-152.2zM96 32v832h320v-208c0-26.6 21.4-48 48-48h208v-576h-576zM596.4 319.4c-24.4 24-94 17.4-128.8 13-34.4 21-57.4 50-73.6 92.6 7.8 32.2 20.2 81.2 10.8 112-8.4 52.4-75.6 47.2-85.2 11.8-8.8-32.2-0.8-77 14-134.2-20-47.8-49.8-112-70.8-148.8-40-20.6-94-52.4-102-92.4-6.6-31.6 52-110.4 152.2 62.4 44.8 14.8 93.6 33 136.8 40.2 37.8-20.4 82-34 111.6-34 51 0 56 56.4 35 77.4zM200.2 163.8c10.2 27.4 49 59 60.8 70-38-60.6-60.8-71.4-60.8-70zM363.4 545c14.8 0 13.4-64.2 3.6-81.6-8.8 27.8-8.6 81.6-3.6 81.6zM314.6 271.8c19.4 33.8 36 74 49.4 109.4 16.6-30.2 37.8-54.4 60.2-71-41.6-8.6-77.8-26.2-109.6-38.4zM577.8 281.8c0 0-10-12-74.6 15.6 70.2 5.2 81.8-10.8 74.6-15.6z" />
<glyph unicode="&#xe914;" glyph-name="icon-powerpoint" horiz-adv-x="768" d="M739.8 764.2l-167.8 167.8c-18 18-42.4 28.2-67.8 28.2h-408.2c-53-0.2-96-43.2-96-96.2v-832c0-53 43-96 96-96h576c53 0 96 43 96 96v664.2c0 25.4-10.2 50-28.2 68zM664.2 704h-152.2v152.2l152.2-152.2zM96 32v832h320v-208c0-26.6 21.4-48 48-48h208v-576h-576zM240 152v336c0 13.2 10.8 24 24 24h138.4c73.4 0 125.6-54 125.6-132.6 0-148.6-137.4-133-191-133v-94.4c0-13.2-10.8-24-24-24h-49c-13.2 0-24 10.8-24 24zM337 326.8h46c15.8 0 27.8 4.8 36.2 14.4 17 19.6 16.8 57 0.2 75.6-8.2 9.2-19.8 14-34.8 14h-47.8l0.2-104z" />
<glyph unicode="&#xe915;" glyph-name="icon-image" d="M972.8 857.6h-921.6c-30.72 0-51.2-20.48-51.2-51.2v-716.8c0-30.72 20.48-51.2 51.2-51.2h921.6c30.72 0 51.2 20.48 51.2 51.2v716.8c0 30.72-20.48 51.2-51.2 51.2zM921.6 140.8h-819.2v614.4h819.2v-614.4zM732.16 401.92l-163.84-81.92-194.56 312.32-168.96-389.12h614.4l-87.040 158.72zM675.84 499.2c35.84 0 61.44 30.72 61.44 61.44s-30.72 61.44-61.44 61.44-61.44-25.6-61.44-61.44 30.72-61.44 61.44-61.44z" />
<glyph unicode="&#xe916;" glyph-name="icon-map" d="M512 939.52c-271.36 0-491.52-220.16-491.52-491.52s220.16-491.52 491.52-491.52c271.36 0 491.52 220.16 491.52 491.52s-220.16 491.52-491.52 491.52zM931.84 448c0-97.28-30.72-184.32-87.040-256-15.36 10.24-30.72 46.080-15.36 76.8 15.36 35.84 20.48 112.64 15.36 143.36s-20.48 102.4-61.44 102.4c-40.96 0-71.68 15.36-97.28 66.56-51.2 107.52 97.28 128 46.080 184.32-15.36 15.36-92.16-66.56-102.4 46.080 0 10.24 5.12 20.48 15.36 30.72 163.84-51.2 286.72-209.92 286.72-394.24zM455.68 862.72c-10.24-20.48-35.84-25.6-51.2-40.96-35.84-30.72-51.2-25.6-66.56-56.32-25.6-30.72-87.040-76.8-87.040-97.28s30.72-46.080 46.080-40.96c15.36 5.12 56.32 5.12 81.92-5.12s199.68-15.36 143.36-163.84c-15.36-46.080-97.28-40.96-117.76-117.76-5.12-10.24-15.36-61.44-15.36-76.8 0-30.72 20.48-122.88-5.12-122.88s-87.040 81.92-87.040 97.28-15.36 66.56-15.36 112.64c0 51.2-76.8 46.080-76.8 107.52 0 56.32 40.96 81.92 30.72 107.52-10.24 30.72-81.92 30.72-112.64 30.72 51.2 143.36 179.2 245.76 332.8 266.24zM378.88 48.64c25.6 15.36 25.6 30.72 51.2 30.72s46.080 10.24 76.8 15.36c25.6 5.12 71.68 30.72 112.64 35.84 35.84 5.12 102.4 0 122.88-35.84-66.56-46.080-143.36-71.68-230.4-71.68-46.080 5.12-92.16 15.36-133.12 25.6z" />
<glyph unicode="&#xe917;" glyph-name="Index" d="M737.28 499.2h-296.96c-30.72 0-30.72-20.48-30.72-51.2s0-51.2 30.72-51.2h296.96c30.72 0 30.72 20.48 30.72 51.2s0 51.2-30.72 51.2zM839.68 243.2h-399.36c-30.72 0-30.72-20.48-30.72-51.2s0-51.2 30.72-51.2h399.36c30.72 0 30.72 20.48 30.72 51.2s0 51.2-30.72 51.2zM440.32 652.8h399.36c30.72 0 30.72 20.48 30.72 51.2s0 51.2-30.72 51.2h-399.36c-30.72 0-30.72-20.48-30.72-51.2s0-51.2 30.72-51.2zM276.48 499.2h-92.16c-30.72 0-30.72-20.48-30.72-51.2s0-51.2 30.72-51.2h92.16c30.72 0 30.72 20.48 30.72 51.2s0 51.2-30.72 51.2zM276.48 243.2h-92.16c-30.72 0-30.72-20.48-30.72-51.2s0-51.2 30.72-51.2h92.16c30.72 0 30.72 20.48 30.72 51.2s0 51.2-30.72 51.2zM276.48 755.2h-92.16c-30.72 0-30.72-20.48-30.72-51.2s0-51.2 30.72-51.2h92.16c30.72 0 30.72 20.48 30.72 51.2s0 51.2-30.72 51.2z" />
<glyph unicode="&#xe918;" glyph-name="Metadata" d="M716.8 704h-204.8v-102.4h204.8v102.4zM716.8 550.4h-204.8v-51.2h204.8v51.2zM460.8 704h-153.6v-204.8h153.6v204.8zM460.8 396.8h256v51.2h-256v-51.2zM614.4 294.4h102.4v51.2h-102.4v-51.2zM716.8 243.2h-409.6v-51.2h409.6v51.2zM563.2 345.6h-256v-51.2h256v51.2zM409.6 448h-102.4v-51.2h102.4v51.2zM870.4 908.8h-716.8c-30.72 0-51.2-20.48-51.2-51.2v-819.2c0-30.72 20.48-51.2 51.2-51.2h716.8c30.72 0 51.2 20.48 51.2 51.2v819.2c0 30.72-20.48 51.2-51.2 51.2zM819.2 89.6h-614.4v716.8h614.4v-716.8z" />
<glyph unicode="&#xe919;" glyph-name="Layout-Grid-C" horiz-adv-x="1325" d="M1204.436 971.373h-1086.559c-8.534 0-17.068-11.373-17.068-22.763l-2.839-429.5c0-14.229 11.373-25.602 22.763-25.602h1078.025c11.373 0 19.907 11.373 22.763 25.602v429.5c0 14.229-8.534 22.763-17.068 22.763zM615.649 641.424v184.89l130.847-91.017-130.847-93.873zM618.488 425.237h-500.61c-8.534 0-17.068-11.373-17.068-22.763l-2.839-429.5c0-14.229 11.373-25.602 22.763-25.602h489.237c11.373 0 19.907 11.373 22.763 25.602v429.5c5.695 11.373-2.839 22.763-14.229 22.763zM1204.436 425.237h-503.466c-8.534 0-17.068-11.373-17.068-22.763l-2.839-429.5c0-14.229 11.373-25.602 22.763-25.602h492.076c11.373 0 19.907 11.373 22.763 25.602v429.5c2.839 11.373-5.695 22.763-14.229 22.763z" />
<glyph unicode="&#xe91a;" glyph-name="Layout-Grid-B" horiz-adv-x="1325" d="M609.954 971.373h-503.466c-8.534 0-17.068-11.373-17.068-22.763l-2.839-429.5c0-14.229 11.373-25.602 22.763-25.602h492.076c11.373 0 19.907 11.373 22.763 25.602v429.5c8.534 14.229 0 22.763-14.229 22.763zM302.767 641.424v184.89l130.847-91.017-130.847-93.873zM612.793 425.237h-500.61c-8.534 0-17.068-11.373-17.068-22.763l-2.839-429.5c0-14.229 11.373-25.602 22.763-25.602h492.076c11.373 0 19.907 11.373 22.763 25.602v429.5c0 11.373-5.695 22.763-17.068 22.763zM1195.903 971.373h-503.466c-8.534 0-17.068-11.373-17.068-22.763l-2.839-975.635c0-14.229 11.373-25.602 22.763-25.602h492.076c11.373 0 19.907 11.373 22.763 25.602v975.635c5.695 14.229-2.839 22.763-14.229 22.763z" />
<glyph unicode="&#xe91b;" glyph-name="Layout-Grid-A" horiz-adv-x="1325" d="M197.275 411.561v-457.471c0-7.754 10.334-15.509 20.683-15.509l390.262-2.58c12.929 0 23.263 10.334 23.263 20.683v447.121c0 10.334-10.334 18.088-23.263 20.683h-390.262c-12.929 7.754-20.683 0-20.683-12.929zM497.081 132.439h-167.999l82.702 118.894 85.297-118.894zM693.517 943.979v-984.714c0-7.754 10.334-15.509 20.683-15.509l390.262-2.58c12.929 0 23.263 10.334 23.263 20.683v976.96c0 10.334-10.334 18.088-23.263 20.683h-390.262c-10.334 2.58-20.683-5.175-20.683-15.509zM197.275 943.979v-457.471c0-7.754 10.334-15.509 20.683-15.509l390.262-2.58c12.929 0 23.263 10.334 23.263 20.683v447.121c0 10.334-10.334 18.088-23.263 20.683h-390.262c-12.929 5.175-20.683-2.58-20.683-12.929z" />
<glyph unicode="&#xe91c;" glyph-name="Transcript" d="M793.6 396.8h-563.2c-15.36 0-25.6-10.24-25.6-25.6v-51.2c0-15.36 10.24-25.6 25.6-25.6h563.2c15.36 0 25.6 10.24 25.6 25.6v51.2c0 15.36-10.24 25.6-25.6 25.6zM793.6 601.6h-563.2c-15.36 0-25.6-10.24-25.6-25.6v-51.2c0-15.36 10.24-25.6 25.6-25.6h563.2c15.36 0 25.6 10.24 25.6 25.6v51.2c0 15.36-10.24 25.6-25.6 25.6zM537.6 192h-307.2c-15.36 0-25.6-10.24-25.6-25.6v-51.2c0-15.36 10.24-25.6 25.6-25.6h307.2c15.36 0 25.6 10.24 25.6 25.6v51.2c0 15.36-10.24 25.6-25.6 25.6zM793.6 806.4h-563.2c-15.36 0-25.6-10.24-25.6-25.6v-51.2c0-15.36 10.24-25.6 25.6-25.6h563.2c15.36 0 25.6 10.24 25.6 25.6v51.2c0 15.36-10.24 25.6-25.6 25.6z" />
<glyph unicode="&#xe91d;" glyph-name="Upload-Transcript" d="M793.6 396.8h-563.2c-15.36 0-25.6-10.24-25.6-25.6v-51.2c0-15.36 10.24-25.6 25.6-25.6h563.2c15.36 0 25.6 10.24 25.6 25.6v51.2c0 15.36-10.24 25.6-25.6 25.6zM793.6 601.6h-563.2c-15.36 0-25.6-10.24-25.6-25.6v-51.2c0-15.36 10.24-25.6 25.6-25.6h563.2c15.36 0 25.6 10.24 25.6 25.6v51.2c0 15.36-10.24 25.6-25.6 25.6zM537.6 192h-307.2c-15.36 0-25.6-10.24-25.6-25.6v-51.2c0-15.36 10.24-25.6 25.6-25.6h307.2c15.36 0 25.6 10.24 25.6 25.6v51.2c0 15.36-10.24 25.6-25.6 25.6zM793.6 806.4h-563.2c-15.36 0-25.6-10.24-25.6-25.6v-51.2c0-15.36 10.24-25.6 25.6-25.6h563.2c15.36 0 25.6 10.24 25.6 25.6v51.2c0 15.36-10.24 25.6-25.6 25.6zM880.64 48.64v153.6h-102.4v-153.6h-153.6v-102.4h153.6v-153.6h102.4v153.6h153.6v102.4h-153.6z" />
<glyph unicode="&#xea90;" glyph-name="facebook" d="M608 768h160v192h-160c-123.514 0-224-100.486-224-224v-96h-128v-192h128v-512h192v512h160l32 192h-192v96c0 17.346 14.654 32 32 32z" />
<glyph unicode="&#xea96;" glyph-name="twitter" d="M1024 733.6c-37.6-16.8-78.2-28-120.6-33 43.4 26 76.6 67.2 92.4 116.2-40.6-24-85.6-41.6-133.4-51-38.4 40.8-93 66.2-153.4 66.2-116 0-210-94-210-210 0-16.4 1.8-32.4 5.4-47.8-174.6 8.8-329.4 92.4-433 219.6-18-31-28.4-67.2-28.4-105.6 0-72.8 37-137.2 93.4-174.8-34.4 1-66.8 10.6-95.2 26.2 0-0.8 0-1.8 0-2.6 0-101.8 72.4-186.8 168.6-206-17.6-4.8-36.2-7.4-55.4-7.4-13.6 0-26.6 1.4-39.6 3.8 26.8-83.4 104.4-144.2 196.2-146-72-56.4-162.4-90-261-90-17 0-33.6 1-50.2 3 93.2-59.8 203.6-94.4 322.2-94.4 386.4 0 597.8 320.2 597.8 597.8 0 9.2-0.2 18.2-0.6 27.2 41 29.4 76.6 66.4 104.8 108.6z" />
<glyph unicode="&#xea9d;" glyph-name="youtube" d="M1013.8 652.8c0 0-10 70.6-40.8 101.6-39 40.8-82.6 41-102.6 43.4-143.2 10.4-358.2 10.4-358.2 10.4h-0.4c0 0-215 0-358.2-10.4-20-2.4-63.6-2.6-102.6-43.4-30.8-31-40.6-101.6-40.6-101.6s-10.2-82.8-10.2-165.8v-77.6c0-82.8 10.2-165.8 10.2-165.8s10-70.6 40.6-101.6c39-40.8 90.2-39.4 113-43.8 82-7.8 348.2-10.2 348.2-10.2s215.2 0.4 358.4 10.6c20 2.4 63.6 2.6 102.6 43.4 30.8 31 40.8 101.6 40.8 101.6s10.2 82.8 10.2 165.8v77.6c-0.2 82.8-10.4 165.8-10.4 165.8zM406.2 315.2v287.8l276.6-144.4-276.6-143.4z" />
<glyph unicode="&#xeaca;" glyph-name="linkedin2" d="M384 576h177.106v-90.782h2.532c24.64 44.194 84.958 90.782 174.842 90.782 186.946 0 221.52-116.376 221.52-267.734v-308.266h-184.61v273.278c0 65.184-1.334 149.026-96.028 149.026-96.148 0-110.82-70.986-110.82-144.292v-278.012h-184.542v576zM64 576h192v-576h-192v576zM256 736c0-53.019-42.981-96-96-96s-96 42.981-96 96c0 53.019 42.981 96 96 96s96-42.981 96-96z" />
</font>
</defs>
</svg>
