<?xml version="1.0" encoding="iso-8859-1"?>
<!-- Generator: Adobe Illustrator 19.0.0, SVG Export Plug-In . SVG Version: 6.00 Build 0)  -->
<svg version="1.1" id="Capa_1" xmlns="http://www.w3.org/2000/svg" xmlns:xlink="http://www.w3.org/1999/xlink" x="0px" y="0px"
	 viewBox="0 0 512.102 512.102" style="enable-background:new 0 0 512.102 512.102;" xml:space="preserve">
<g transform="translate(0 -1)">
	<g>
		<g>
			<path d="M64.049,394.244H9.192c-5.047,0.007-9.136,4.096-9.143,9.143v109.714h73.143V403.387
				C73.185,398.341,69.096,394.251,64.049,394.244z"/>
			<path d="M210.335,266.244h-54.857c-5.047,0.007-9.136,4.096-9.143,9.143v237.714h73.143V275.387
				C219.471,270.341,215.382,266.251,210.335,266.244z"/>
			<path d="M356.621,321.102h-54.857c-5.047,0.007-9.136,4.096-9.143,9.143v182.857h73.143V330.244
				C365.757,325.198,361.667,321.108,356.621,321.102z"/>
			<path d="M502.906,247.959h-54.857c-5.047,0.007-9.136,4.096-9.143,9.143v256h73.143v-256
				C512.043,252.055,507.953,247.965,502.906,247.959z"/>
			<path d="M450.362,82.438c11.915,11.302,29.907,13.267,43.98,4.802c14.073-8.464,20.771-25.278,16.372-41.101
				c-4.399-15.823-18.814-26.767-35.236-26.753c-11.684-0.154-22.719,5.356-29.616,14.788c-6.897,9.432-8.801,21.619-5.111,32.706
				l-86.443,54.026c-12.787-12.29-32.599-13.495-46.782-2.845l-91.393-65.281c7.392-16.142,2.119-35.262-12.503-45.332
				s-34.366-8.179-46.81,4.484s-13.993,32.436-3.671,46.881L52.359,178.502c-16.612-7.909-36.515-2.233-46.456,13.249
				c-9.941,15.482-6.821,35.941,7.284,47.756c14.105,11.815,34.794,11.299,48.293-1.203c13.499-12.502,15.598-33.091,4.898-48.059
				l100.79-119.687c12.138,5.983,26.613,4.605,37.405-3.56l91.393,65.281c-7.05,14.899-3.291,32.671,9.188,43.439
				s30.61,11.885,44.316,2.73c13.706-9.155,19.618-26.332,14.45-41.983L450.362,82.438z"/>
		</g>
	</g>
</g>
<g>
</g>
<g>
</g>
<g>
</g>
<g>
</g>
<g>
</g>
<g>
</g>
<g>
</g>
<g>
</g>
<g>
</g>
<g>
</g>
<g>
</g>
<g>
</g>
<g>
</g>
<g>
</g>
<g>
</g>
</svg>
