<?xml version="1.0" encoding="iso-8859-1"?>
<!-- Generator: Adobe Illustrator 17.1.0, SVG Export Plug-In . SVG Version: 6.00 Build 0)  -->
<!DOCTYPE svg PUBLIC "-//W3C//DTD SVG 1.1//EN" "http://www.w3.org/Graphics/SVG/1.1/DTD/svg11.dtd">
<svg version="1.1" id="Capa_1" xmlns="http://www.w3.org/2000/svg" xmlns:xlink="http://www.w3.org/1999/xlink" x="0px" y="0px"
	 viewBox="0 0 237.346 237.346" style="enable-background:new 0 0 237.346 237.346;" xml:space="preserve">
<path d="M10.78,61.173c-0.587-1.011-1.267-2.159-1.267-3.39V32.832c0-12.219,9.843-21.659,20.917-21.659h74.833
	c11.074,0,19.25,9.44,19.25,21.659v2.341h83.333c4.143,0,6.667,3.322,6.667,7.465v18.535H10.78z M195.346,142.173
	c23.159,0,42,18.841,42,42s-18.841,42-42,42s-42-18.841-42-42S172.187,142.173,195.346,142.173z M219.932,177.748l-29.714-17.911
	c-2.317-1.396-5.373-1.437-7.727-0.106c-2.355,1.33-3.978,3.825-3.978,6.53v35.82c0,2.705,1.623,5.2,3.978,6.53
	c1.146,0.647,2.5,0.97,3.772,0.97c1.342,0,2.724-0.359,3.914-1.076l29.735-17.911c2.251-1.356,3.638-3.794,3.638-6.423
	S222.183,179.105,219.932,177.748z M138.346,184.173c0-31.43,25.57-57,57-57c9.406,0,18.28,2.304,26.108,6.357l4.206-48.2
	c0.208-2.381-0.567-4.663-2.183-6.425s-3.82-2.732-6.211-2.732H8.427c-2.428,0-4.657,0.996-6.277,2.806
	c-1.619,1.809-2.363,4.133-2.097,6.546l12.973,117.151c0.474,4.273,4.073,7.497,8.374,7.497h123.248
	C140.63,202.371,138.346,193.536,138.346,184.173z"/>
<g>
</g>
<g>
</g>
<g>
</g>
<g>
</g>
<g>
</g>
<g>
</g>
<g>
</g>
<g>
</g>
<g>
</g>
<g>
</g>
<g>
</g>
<g>
</g>
<g>
</g>
<g>
</g>
<g>
</g>
</svg>
